<svg width="91" height="91" viewBox="0 0 91 91" fill="none" xmlns="http://www.w3.org/2000/svg">
<g clip-path="url(#clip0_60_427)">
<path d="M15.1667 30.3333C15.1667 26.3108 16.7647 22.4531 19.609 19.6088C22.4533 16.7645 26.311 15.1666 30.3334 15.1666H60.6667C64.6892 15.1666 68.5469 16.7645 71.3912 19.6088C74.2355 22.4531 75.8334 26.3108 75.8334 30.3333V60.6666C75.8334 64.6891 74.2355 68.5468 71.3912 71.3911C68.5469 74.2354 64.6892 75.8333 60.6667 75.8333H30.3334C26.311 75.8333 22.4533 74.2354 19.609 71.3911C16.7647 68.5468 15.1667 64.6891 15.1667 60.6666V30.3333Z" stroke="white" stroke-width="2" stroke-linecap="round" stroke-linejoin="round"/>
<path d="M34.125 45.5C34.125 48.5168 35.3234 51.4101 37.4567 53.5433C39.5899 55.6766 42.4832 56.875 45.5 56.875C48.5168 56.875 51.4101 55.6766 53.5433 53.5433C55.6766 51.4101 56.875 48.5168 56.875 45.5C56.875 42.4832 55.6766 39.5899 53.5433 37.4567C51.4101 35.3234 48.5168 34.125 45.5 34.125C42.4832 34.125 39.5899 35.3234 37.4567 37.4567C35.3234 39.5899 34.125 42.4832 34.125 45.5Z" stroke="white" stroke-width="2" stroke-linecap="round" stroke-linejoin="round"/>
<path d="M62.5625 28.4375V28.4754" stroke="white" stroke-width="2" stroke-linecap="round" stroke-linejoin="round"/>
</g>
<defs>
<clipPath id="clip0_60_427">
<rect width="91" height="91" fill="white"/>
</clipPath>
</defs>
</svg>
