<svg width="43" height="30" viewBox="0 0 43 30" fill="none" xmlns="http://www.w3.org/2000/svg">
<path d="M5.375 3.75C4.63594 3.75 4.03125 4.3125 4.03125 5V6.72656L18.5186 17.7891C20.257 19.1172 22.7514 19.1172 24.4898 17.7891L38.9688 6.72656V5C38.9688 4.3125 38.3641 3.75 37.625 3.75H5.375ZM4.03125 11.5781V25C4.03125 25.6875 4.63594 26.25 5.375 26.25H37.625C38.3641 26.25 38.9688 25.6875 38.9688 25V11.5781L27.043 20.6875C23.818 23.1484 19.1736 23.1484 15.957 20.6875L4.03125 11.5781ZM0 5C0 2.24219 2.41035 0 5.375 0H37.625C40.5896 0 43 2.24219 43 5V25C43 27.7578 40.5896 30 37.625 30H5.375C2.41035 30 0 27.7578 0 25V5Z" fill="white"/>
</svg>
