<svg width="41" height="35" viewBox="0 0 41 35" fill="none" xmlns="http://www.w3.org/2000/svg">
<path d="M13.2043 1.68311C12.5877 0.41168 10.9622 -0.265049 9.40876 0.0972402L2.3622 1.73779C0.968903 2.0659 0 3.14593 0 4.37635C0 21.2877 16.063 35 35.8734 35C37.3148 35 38.5799 34.1729 38.9643 32.9835L40.8861 26.9681C41.3105 25.642 40.5177 24.2544 39.0284 23.728L31.3412 20.9938C30.036 20.529 28.5226 20.8502 27.6337 21.7867L24.3987 25.1567C18.7615 22.8804 14.1972 18.9841 11.5307 14.1718L15.4784 11.4171C16.5754 10.6515 16.9518 9.36636 16.4073 8.25215L13.2043 1.68994V1.68311Z" fill="white"/>
</svg>
