<svg width="91" height="91" viewBox="0 0 91 91" fill="none" xmlns="http://www.w3.org/2000/svg">
<g opacity="0.3" clip-path="url(#clip0_60_416)">
<path d="M68.2501 11.375C70.7397 11.375 73.205 11.8654 75.5051 12.8181C77.8053 13.7709 79.8952 15.1673 81.6556 16.9278C83.4161 18.6882 84.8126 20.7782 85.7653 23.0783C86.718 25.3784 87.2084 27.8437 87.2084 30.3333V60.6667C87.2084 63.1563 86.718 65.6216 85.7653 67.9217C84.8126 70.2218 83.4161 72.3118 81.6556 74.0722C79.8952 75.8327 77.8053 77.2291 75.5051 78.1819C73.205 79.1346 70.7397 79.625 68.2501 79.625H22.7501C20.2604 79.625 17.7952 79.1346 15.495 78.1819C13.1949 77.2291 11.105 75.8327 9.34452 74.0722C5.78914 70.5169 3.79175 65.6947 3.79175 60.6667V30.3333C3.79175 25.3053 5.78914 20.4831 9.34452 16.9278C12.8999 13.3724 17.722 11.375 22.7501 11.375H68.2501ZM34.1251 34.125V56.875C34.1256 57.5455 34.304 58.204 34.6419 58.7831C34.9799 59.3622 35.4654 59.8414 36.0489 60.1717C36.6325 60.502 37.2932 60.6717 37.9637 60.6634C38.6342 60.6551 39.2905 60.4691 39.8657 60.1245L58.824 48.7495C59.3846 48.4124 59.8485 47.936 60.1705 47.3666C60.4925 46.7972 60.6618 46.1542 60.6618 45.5C60.6618 44.8458 60.4925 44.2028 60.1705 43.6334C59.8485 43.064 59.3846 42.5876 58.824 42.2505L39.8657 30.8755C39.2905 30.5309 38.6342 30.3449 37.9637 30.3366C37.2932 30.3283 36.6325 30.498 36.0489 30.8283C35.4654 31.1586 34.9799 31.6378 34.6419 32.2169C34.304 32.796 34.1256 33.4545 34.1251 34.125Z" fill="white"/>
</g>
<defs>
<clipPath id="clip0_60_416">
<rect width="91" height="91" fill="white"/>
</clipPath>
</defs>
</svg>
