<svg width="91" height="91" viewBox="0 0 91 91" fill="none" xmlns="http://www.w3.org/2000/svg">
<path d="M39.8125 5.68751C37.9214 5.68751 36.4 7.58927 36.4 9.95314C36.4 12.317 37.9214 14.2188 39.8125 14.2188H48.0167L50.3486 19.6041L36.4 34.125L29.9589 26.0736C28.2527 23.9408 25.935 22.75 23.5178 22.75H9.1C6.58328 22.75 4.55 25.2916 4.55 28.4375V34.125H18.2C30.7694 34.125 40.95 46.8508 40.95 62.5625C40.95 64.5176 40.7936 66.4193 40.495 68.25H50.505C50.2064 66.4193 50.05 64.5176 50.05 62.5625C50.05 53.2848 53.6047 45.0379 59.1073 39.8481L61.297 44.9313C57.2163 49.108 54.6 55.4531 54.6 62.5625C54.6 75.1283 62.7473 85.3125 72.8 85.3125C82.8527 85.3125 91 75.1283 91 62.5625C91 49.9967 82.8527 39.8125 72.8 39.8125C70.8805 39.8125 69.032 40.1858 67.2973 40.8789L59.4628 22.75H68.25C70.7667 22.75 72.8 20.2084 72.8 17.0625V11.375C72.8 8.22911 70.7667 5.68751 68.25 5.68751H65.3494C64.283 5.68751 63.2592 6.14962 62.4345 7.00275L55.6948 14.0233L53.7042 9.40216C52.7089 7.10939 50.7894 5.66974 48.6992 5.66974L39.8125 5.68751ZM65.7902 55.3109L69.7998 64.5887C70.6956 66.6682 72.7716 67.4324 74.4209 66.3127C76.0703 65.193 76.6959 62.5981 75.8002 60.5363L71.7905 51.2586C72.1175 51.2053 72.4588 51.1875 72.8 51.1875C77.8192 51.1875 81.9 56.2885 81.9 62.5625C81.9 68.8365 77.8192 73.9375 72.8 73.9375C67.7808 73.9375 63.7 68.8365 63.7 62.5625C63.7 59.8076 64.482 57.2838 65.7902 55.3109ZM26.6317 66.8281C25.2809 71.0049 22.0106 73.9375 18.2 73.9375C13.1808 73.9375 9.1 68.8365 9.1 62.5625C9.1 56.2885 13.1808 51.1875 18.2 51.1875C22.0248 51.1875 25.2952 54.1201 26.6317 58.2969H36.073C34.4805 47.775 27.0867 39.8125 18.2 39.8125C8.14734 39.8125 0 49.9967 0 62.5625C0 75.1283 8.14734 85.3125 18.2 85.3125C27.0867 85.3125 34.4805 77.35 36.0872 66.8281H26.6459H26.6317ZM18.2 68.25C19.4067 68.25 20.564 67.6508 21.4173 66.5842C22.2706 65.5176 22.75 64.0709 22.75 62.5625C22.75 61.0541 22.2706 59.6075 21.4173 58.5408C20.564 57.4742 19.4067 56.875 18.2 56.875C16.9933 56.875 15.836 57.4742 14.9827 58.5408C14.1294 59.6075 13.65 61.0541 13.65 62.5625C13.65 64.0709 14.1294 65.5176 14.9827 66.5842C15.836 67.6508 16.9933 68.25 18.2 68.25Z" fill="#E10600" fill-opacity="0.68"/>
</svg>
