<svg width="91" height="91" viewBox="0 0 91 91" fill="none" xmlns="http://www.w3.org/2000/svg">
<g clip-path="url(#clip0_19_107)">
<path d="M11.3752 79.625C10.3695 79.625 9.40512 79.2255 8.69405 78.5145C7.98297 77.8034 7.5835 76.8389 7.5835 75.8333C7.5835 74.8277 7.98297 73.8633 8.69405 73.1522C9.40512 72.4411 10.3695 72.0417 11.3752 72.0417V22.75C11.3752 19.7332 12.5736 16.8399 14.7068 14.7067C16.84 12.5734 19.7333 11.375 22.7502 11.375H45.5002C48.517 11.375 51.4103 12.5734 53.5435 14.7067C55.6767 16.8399 56.8752 19.7332 56.8752 22.75V37.9167C59.892 37.9167 62.7853 39.1151 64.9185 41.2483C67.0517 43.3816 68.2502 46.2748 68.2502 49.2917V60.6667C68.2502 61.1695 68.4499 61.6517 68.8054 62.0072C69.161 62.3628 69.6432 62.5625 70.146 62.5625C70.6488 62.5625 71.131 62.3628 71.4866 62.0072C71.8421 61.6517 72.0418 61.1695 72.0418 60.6667V37.9167C70.0306 37.9167 68.1018 37.1177 66.6796 35.6956C65.2575 34.2734 64.4585 32.3446 64.4585 30.3333V28.1152L61.7778 25.4307C61.1249 24.7778 60.7328 23.9091 60.6748 22.9877C60.6169 22.0662 60.8972 21.1552 61.4631 20.4257L61.7778 20.0693C62.4888 19.3585 63.4531 18.9591 64.4585 18.9591C65.4639 18.9591 66.4282 19.3585 67.1392 20.0693L78.5256 31.4519L78.8858 31.8765L78.992 32.0282L79.1588 32.305L79.356 32.7221L79.4735 33.0633L79.5493 33.3515L79.5948 33.6472L79.6252 34.125V60.6667C79.6252 63.1807 78.6265 65.5918 76.8488 67.3694C75.0711 69.1471 72.66 70.1458 70.146 70.1458C67.632 70.1458 65.2209 69.1471 63.4432 67.3694C61.6655 65.5918 60.6668 63.1807 60.6668 60.6667V49.2917C60.6668 48.2861 60.2673 47.3216 59.5563 46.6106C58.8452 45.8995 57.8808 45.5 56.8752 45.5V72.0417C57.8808 72.0417 58.8452 72.4411 59.5563 73.1522C60.2673 73.8633 60.6668 74.8277 60.6668 75.8333C60.6668 76.8389 60.2673 77.8034 59.5563 78.5145C58.8452 79.2255 57.8808 79.625 56.8752 79.625H11.3752ZM45.5002 18.9583H22.7502C21.7445 18.9583 20.7801 19.3578 20.069 20.0689C19.358 20.78 18.9585 21.7444 18.9585 22.75V37.9167H49.2918V22.75C49.2918 21.7444 48.8923 20.78 48.1813 20.0689C47.4702 19.3578 46.5058 18.9583 45.5002 18.9583Z" fill="#E10600" fill-opacity="0.68"/>
</g>
<defs>
<clipPath id="clip0_19_107">
<rect width="91" height="91" fill="white"/>
</clipPath>
</defs>
</svg>
