<svg width="91" height="91" viewBox="0 0 91 91" fill="none" xmlns="http://www.w3.org/2000/svg">
<g clip-path="url(#clip0_19_100)">
<path d="M72.0416 11.375C74.726 11.3735 77.3244 12.3215 79.3773 14.0512C81.4301 15.7809 82.8051 18.1809 83.2589 20.8266C83.7128 23.4724 83.2164 26.1934 81.8575 28.5084C80.4985 30.8235 78.3646 32.5833 75.8333 33.4766V37.9167C75.8333 40.9335 74.6348 43.8268 72.5016 45.96C70.3684 48.0932 67.4751 49.2917 64.4582 49.2917H49.2916V57.5234C51.259 58.2179 52.9977 59.4401 54.3173 61.0562C55.637 62.6723 56.4869 64.6201 56.7742 66.6867C57.0614 68.7533 56.7749 70.8591 55.946 72.7738C55.117 74.6886 53.7776 76.3385 52.0741 77.5433C50.3707 78.7481 48.3687 79.4613 46.2872 79.605C44.2057 79.7486 42.1248 79.3172 40.2719 78.3579C38.4191 77.3986 36.8657 75.9483 35.7816 74.1656C34.6974 72.3829 34.1243 70.3365 34.1249 68.25L34.1439 67.5827C34.2741 65.347 35.0614 63.1994 36.407 61.4093C37.7527 59.6191 39.5968 58.266 41.7083 57.5196V49.2917H22.7499V57.5234C24.7174 58.2179 26.456 59.4401 27.7757 61.0562C29.0953 62.6723 29.9453 64.6201 30.2325 66.6867C30.5197 68.7533 30.2332 70.8591 29.4043 72.7738C28.5754 74.6886 27.236 76.3385 25.5325 77.5433C23.829 78.7481 21.8271 79.4613 19.7456 79.605C17.6641 79.7486 15.5831 79.3172 13.7303 78.3579C11.8774 77.3986 10.324 75.9483 9.23989 74.1656C8.15577 72.3829 7.58267 70.3365 7.58325 68.25L7.60221 67.5827C7.73244 65.347 8.51972 63.1994 9.86537 61.4093C11.211 59.6191 13.0551 58.266 15.1666 57.5196V33.4766C12.9485 32.6924 11.0281 31.2397 9.66998 29.3186C8.31185 27.3976 7.5828 25.1027 7.58325 22.75L7.60221 22.0827C7.72356 20.0296 8.39928 18.0478 9.55747 16.3482C10.7157 14.6486 12.313 13.2948 14.1794 12.4309C16.0459 11.5671 18.1117 11.2254 20.1569 11.4422C22.2021 11.6591 24.1503 12.4264 25.794 13.6626C27.4378 14.8987 28.7157 16.5573 29.4917 18.462C30.2677 20.3667 30.5127 22.4461 30.2008 24.479C29.8889 26.5119 29.0316 28.4222 27.7202 30.0066C26.4089 31.591 24.6925 32.7902 22.7537 33.4766L22.7499 41.7083H41.7083V33.4804C39.4895 32.696 37.5687 31.2427 36.2105 29.3209C34.8524 27.3991 34.1237 25.1033 34.1249 22.75L34.1439 22.0827C34.2652 20.0296 34.9409 18.0478 36.0991 16.3482C37.2573 14.6486 38.8546 13.2948 40.7211 12.4309C42.5876 11.5671 44.6533 11.2254 46.6985 11.4422C48.7438 11.6591 50.6919 12.4264 52.3357 13.6626C53.9795 14.8987 55.2573 16.5573 56.0333 18.462C56.8093 20.3667 57.0544 22.4461 56.7425 24.479C56.4305 26.5119 55.5733 28.4222 54.2619 30.0066C52.9505 31.591 51.2341 32.7902 49.2954 33.4766L49.2916 41.7083H64.4582C65.4639 41.7083 66.4283 41.3089 67.1394 40.5978C67.8504 39.8867 68.2499 38.9223 68.2499 37.9167V33.4804C66.0312 32.696 64.1104 31.2427 62.7522 29.3209C61.394 27.3991 60.6653 25.1033 60.6666 22.75L60.6855 22.0827C60.8558 19.1862 62.1264 16.4643 64.2373 14.4739C66.3483 12.4834 69.1402 11.3748 72.0416 11.375Z" fill="#E10600" fill-opacity="0.68"/>
</g>
<defs>
<clipPath id="clip0_19_100">
<rect width="91" height="91" fill="white"/>
</clipPath>
</defs>
</svg>
