<svg width="91" height="91" viewBox="0 0 91 91" fill="none" xmlns="http://www.w3.org/2000/svg">
<g clip-path="url(#clip0_18_207)">
<path d="M0 45.5C0 33.4326 4.79374 21.8595 13.3266 13.3266C21.8595 4.79374 33.4326 0 45.5 0C57.5674 0 69.1405 4.79374 77.6734 13.3266C86.2063 21.8595 91 33.4326 91 45.5C91 57.5674 86.2063 69.1405 77.6734 77.6734C69.1405 86.2063 57.5674 91 45.5 91C33.4326 91 21.8595 86.2063 13.3266 77.6734C4.79374 69.1405 0 57.5674 0 45.5ZM56.875 62.5625C56.875 57.7814 53.9424 53.6936 49.7656 52.0229V15.6406C49.7656 13.2768 47.8639 11.375 45.5 11.375C43.1361 11.375 41.2344 13.2768 41.2344 15.6406V52.0229C37.0576 53.7113 34.125 57.7992 34.125 62.5625C34.125 68.8365 39.226 73.9375 45.5 73.9375C51.774 73.9375 56.875 68.8365 56.875 62.5625ZM25.5938 31.2812C27.1022 31.2812 28.5488 30.682 29.6154 29.6154C30.682 28.5488 31.2812 27.1022 31.2812 25.5938C31.2812 24.0853 30.682 22.6387 29.6154 21.5721C28.5488 20.5055 27.1022 19.9062 25.5938 19.9062C24.0853 19.9062 22.6387 20.5055 21.5721 21.5721C20.5055 22.6387 19.9062 24.0853 19.9062 25.5938C19.9062 27.1022 20.5055 28.5488 21.5721 29.6154C22.6387 30.682 24.0853 31.2812 25.5938 31.2812ZM22.75 45.5C22.75 43.9916 22.1508 42.5449 21.0842 41.4783C20.0176 40.4117 18.5709 39.8125 17.0625 39.8125C15.5541 39.8125 14.1074 40.4117 13.0408 41.4783C11.9742 42.5449 11.375 43.9916 11.375 45.5C11.375 47.0084 11.9742 48.4551 13.0408 49.5217C14.1074 50.5883 15.5541 51.1875 17.0625 51.1875C18.5709 51.1875 20.0176 50.5883 21.0842 49.5217C22.1508 48.4551 22.75 47.0084 22.75 45.5ZM73.9375 51.1875C75.4459 51.1875 76.8926 50.5883 77.9592 49.5217C79.0258 48.4551 79.625 47.0084 79.625 45.5C79.625 43.9916 79.0258 42.5449 77.9592 41.4783C76.8926 40.4117 75.4459 39.8125 73.9375 39.8125C72.4291 39.8125 70.9824 40.4117 69.9158 41.4783C68.8492 42.5449 68.25 43.9916 68.25 45.5C68.25 47.0084 68.8492 48.4551 69.9158 49.5217C70.9824 50.5883 72.4291 51.1875 73.9375 51.1875ZM71.0938 25.5938C71.0938 24.0853 70.4945 22.6387 69.4279 21.5721C68.3613 20.5055 66.9147 19.9062 65.4062 19.9062C63.8978 19.9062 62.4512 20.5055 61.3846 21.5721C60.318 22.6387 59.7188 24.0853 59.7188 25.5938C59.7188 27.1022 60.318 28.5488 61.3846 29.6154C62.4512 30.682 63.8978 31.2812 65.4062 31.2812C66.9147 31.2812 68.3613 30.682 69.4279 29.6154C70.4945 28.5488 71.0938 27.1022 71.0938 25.5938Z" fill="#E10600" fill-opacity="0.68"/>
</g>
<defs>
<clipPath id="clip0_18_207">
<rect width="91" height="91" fill="white"/>
</clipPath>
</defs>
</svg>
